<svg xmlns="http://www.w3.org/2000/svg" width="159.092" height="213.434" viewBox="0 0 159.092 213.434"><g transform="translate(-199.1 -1132.663)"><g transform="translate(199.1 1306.911) rotate(-60)"><path d="M36.441,337.761l-7.916-.821L0,358.415l7.916.819Z" transform="translate(0 -336.94)" fill="#911116"/><path d="M7.916.819,0,0,16.254,56.079l7.917.819Z" transform="translate(0 21.475)" fill="#800f13"/><path d="M63.816,77.553,76.086,0,47.56,21.474Z" transform="translate(-39.644 0.821)" fill="#cb181f"/></g><g transform="translate(242.398 1280.228) rotate(-30)"><path d="M22.842,337.454l-4.962-.514L0,350.4l4.962.513Z" transform="translate(0 -336.94)" fill="#911116"/><path d="M4.962.513,0,0,10.188,35.151l4.963.513Z" transform="translate(0 13.461)" fill="#800f13"/><path d="M57.749,48.611,65.44,0,47.56,13.46Z" transform="translate(-42.598 0.514)" fill="#cb181f"/></g><g transform="translate(298.117 1342.57) rotate(-135)"><path d="M39.5,360.218l-8.581.889L0,337.828l8.581-.888Z" transform="translate(0 -276.149)" fill="#911116"/><path d="M8.581,60.791,0,61.679,17.62.888,26.2,0Z" fill="#800f13"/><path d="M65.182,0l13.3,84.069L47.56,60.791Z" transform="translate(-38.979)" fill="#cb181f"/></g><g transform="matrix(-0.985, -0.174, 0.174, -0.985, 324.263, 1301.829)"><path d="M73.818,380.439,57.784,382.1,0,338.6l16.035-1.659Z" transform="translate(0 -223.341)" fill="#911116"/><path d="M16.035,113.6,0,115.257,32.926,1.659,48.964,0Z" fill="#800f13"/><path d="M80.489,0l24.855,157.1L47.56,113.6Z" transform="translate(-31.525)" fill="#cb181f"/></g></g></svg>