<svg xmlns="http://www.w3.org/2000/svg" width="197.931" height="186.895" viewBox="0 0 197.931 186.895"><g transform="translate(-523.185 -1306.22)"><g transform="matrix(0.999, -0.035, 0.035, 0.999, 596.427, 1340.601)"><path d="M21.713,337.429,17,336.94l-17,12.8,4.717.488Z" transform="translate(0 -336.94)" fill="#911116"/><path d="M4.717.488,0,0,9.685,33.414,14.4,33.9Z" transform="translate(0 12.796)" fill="#800f13"/><path d="M57.246,46.209,64.557,0l-17,12.795Z" transform="translate(-42.843 0.489)" fill="#cb181f"/></g><g transform="translate(647.948 1458.906) rotate(180)"><path d="M21.713,337.429,17,336.94l-17,12.8,4.717.488Z" transform="translate(0 -336.94)" fill="#911116"/><path d="M4.717.488,0,0,9.685,33.414,14.4,33.9Z" transform="translate(0 12.796)" fill="#800f13"/><path d="M57.246,46.209,64.557,0l-17,12.795Z" transform="translate(-42.843 0.489)" fill="#cb181f"/></g><g transform="matrix(0.485, 0.875, -0.875, 0.485, 609.854, 1377.774)"><path d="M46.076,364.091l-10.008,1.038L0,337.975l10.008-1.035Z" transform="translate(0 -266.035)" fill="#911116"/><path d="M10.008,70.905,0,71.941,20.552,1.035,30.562,0Z" fill="#800f13"/><path d="M68.114,0,83.627,98.056,47.56,70.905Z" transform="translate(-37.552)" fill="#cb181f"/></g><g transform="translate(561.522 1493.115) rotate(-119)"><path d="M46.076,364.091l-10.008,1.038L0,337.975l10.008-1.035Z" transform="translate(0 -266.035)" fill="#911116"/><path d="M10.008,70.905,0,71.941,20.552,1.035,30.562,0Z" fill="#800f13"/><path d="M68.114,0,83.627,98.056,47.56,70.905Z" transform="translate(-37.552)" fill="#cb181f"/></g><g transform="translate(682.078 1306.22) rotate(60)"><path d="M46.076,364.091l-10.008,1.038L0,337.975l10.008-1.035Z" transform="translate(0 -266.035)" fill="#911116"/><path d="M10.008,70.905,0,71.941,20.552,1.035,30.562,0Z" fill="#800f13"/><path d="M68.114,0,83.627,98.056,47.56,70.905Z" transform="translate(-37.552)" fill="#cb181f"/></g><g transform="translate(635.298 1422.669) rotate(-120)"><path d="M46.076,364.091l-10.008,1.038L0,337.975l10.008-1.035Z" transform="translate(0 -266.035)" fill="#911116"/><path d="M10.008,70.905,0,71.941,20.552,1.035,30.562,0Z" fill="#800f13"/><path d="M68.114,0,83.627,98.056,47.56,70.905Z" transform="translate(-37.552)" fill="#cb181f"/></g></g></svg>