<svg xmlns="http://www.w3.org/2000/svg" width="230.205" height="260.387" viewBox="0 0 230.205 260.387"><g transform="translate(-872.663 -1084.282)"><g transform="matrix(0.966, 0.259, -0.259, 0.966, 916.648, 1230.193)"><path d="M21.713,337.429,17,336.94l-17,12.8,4.717.488Z" transform="translate(0 -336.94)" fill="#911116"/><path d="M4.717.488,0,0,9.685,33.414,14.4,33.9Z" transform="translate(0 12.796)" fill="#800f13"/><path d="M57.246,46.209,64.557,0l-17,12.795Z" transform="translate(-42.843 0.489)" fill="#cb181f"/></g><g transform="matrix(-0.629, 0.777, -0.777, -0.629, 1024.451, 1213.516)"><path d="M31.852,337.657l-6.919-.717L0,355.711l6.919.716Z" transform="translate(0 -336.94)" fill="#911116"/><path d="M6.919.716,0,0,14.207,49.016l6.92.716Z" transform="translate(0 18.771)" fill="#800f13"/><path d="M61.769,67.785,72.493,0,47.56,18.769Z" transform="translate(-40.641 0.717)" fill="#cb181f"/></g><g transform="translate(945.679 1237.841) rotate(43)"><path d="M24.99,337.5l-5.428-.563L0,351.667l5.428.562Z" transform="translate(0 -336.94)" fill="#911116"/><path d="M5.428.562,0,0,11.147,38.457l5.43.562Z" transform="translate(0 14.727)" fill="#800f13"/><path d="M58.708,53.183,67.122,0,47.56,14.726Z" transform="translate(-42.132 0.563)" fill="#cb181f"/></g><g transform="matrix(0.899, -0.438, 0.438, 0.899, 921.891, 1195.511)"><path d="M36.552,337.763l-7.94-.823L0,358.48l7.94.821Z" transform="translate(0 -336.94)" fill="#911116"/><path d="M7.94.821,0,0,16.3,56.249l7.941.821Z" transform="translate(0 21.54)" fill="#800f13"/><path d="M63.865,77.788,76.172,0,47.56,21.539Z" transform="translate(-39.62 0.823)" fill="#cb181f"/></g><g transform="translate(998.132 1084.282) rotate(38)"><path d="M43.615,337.922l-9.474-.982L0,362.643l9.474.98Z" transform="translate(0 -336.94)" fill="#911116"/><path d="M9.474.98,0,0,19.454,67.119l9.476.98Z" transform="translate(0 25.703)" fill="#800f13"/><path d="M67.016,92.82,81.7,0,47.56,25.7Z" transform="translate(-38.086 0.982)" fill="#cb181f"/></g><g transform="matrix(-0.899, 0.438, -0.438, -0.899, 1000.623, 1246.767)"><path d="M21.441,337.423l-4.657-.483L0,349.576l4.657.482Z" transform="translate(0 -336.94)" fill="#911116"/><path d="M4.657.482,0,0,9.564,33l4.658.482Z" transform="translate(0 12.636)" fill="#800f13"/><path d="M57.125,45.631,64.344,0,47.56,12.635Z" transform="translate(-42.903 0.483)" fill="#cb181f"/></g><g transform="matrix(0.695, 0.719, -0.719, 0.695, 1000.883, 1233.736)"><path d="M10.724,337.182l-2.329-.241L0,343.26l2.329.241Z" transform="translate(0 -336.94)" fill="#911116"/><path d="M2.329.241,0,0,4.783,16.5l2.33.241Z" transform="translate(0 6.32)" fill="#800f13"/><path d="M52.344,22.823,55.955,0,47.56,6.319Z" transform="translate(-45.231 0.241)" fill="#cb181f"/></g><g transform="matrix(-0.259, 0.966, -0.966, -0.259, 1013.839, 1187.409)"><path d="M10.724,337.182l-2.329-.241L0,343.26l2.329.241Z" transform="translate(0 -336.94)" fill="#911116"/><path d="M2.329.241,0,0,4.783,16.5l2.33.241Z" transform="translate(0 6.32)" fill="#800f13"/><path d="M52.344,22.823,55.955,0,47.56,6.319Z" transform="translate(-45.231 0.241)" fill="#cb181f"/></g><g transform="matrix(0.07, 0.998, -0.998, 0.07, 957.442, 1239.45)"><path d="M10.724,337.182l-2.329-.241L0,343.26l2.329.241Z" transform="translate(0 -336.94)" fill="#911116"/><path d="M2.329.241,0,0,4.783,16.5l2.33.241Z" transform="translate(0 6.32)" fill="#800f13"/><path d="M52.344,22.823,55.955,0,47.56,6.319Z" transform="translate(-45.231 0.241)" fill="#cb181f"/></g><g transform="translate(894.802 1325.578) rotate(-147)"><path d="M26.4,352.5l-5.734.594L0,337.533l5.734-.593Z" transform="translate(0 -296.316)" fill="#911116"/><path d="M5.734,40.624,0,41.217,11.775.593,17.51,0Z" fill="#800f13"/><path d="M59.336,0l8.888,56.18L47.56,40.624Z" transform="translate(-41.826)" fill="#cb181f"/></g><g transform="translate(1032.582 1225.869) rotate(60)"><path d="M43.449,362.543l-9.438.978L0,337.916l9.438-.976Z" transform="translate(0 -270.076)" fill="#911116"/><path d="M9.438,66.864,0,67.84,19.38.976,28.82,0Z" fill="#800f13"/><path d="M66.942,0,81.571,92.467,47.56,66.864Z" transform="translate(-38.122)" fill="#cb181f"/></g><g transform="translate(903.298 1344.669) rotate(-120)"><path d="M46.076,364.091l-10.008,1.038L0,337.975l10.008-1.035Z" transform="translate(0 -266.035)" fill="#911116"/><path d="M10.008,70.905,0,71.941,20.552,1.035,30.562,0Z" fill="#800f13"/><path d="M68.114,0,83.627,98.056,47.56,70.905Z" transform="translate(-37.552)" fill="#cb181f"/></g><g transform="translate(1016.298 1257.669) rotate(-120)"><path d="M22.907,350.439l-4.976.516L0,337.455l4.976-.515Z" transform="translate(0 -301.688)" fill="#911116"/><path d="M4.976,35.252,0,35.767,10.218.515,15.195,0Z" fill="#800f13"/><path d="M57.779,0l7.713,48.75L47.56,35.252Z" transform="translate(-42.584)" fill="#cb181f"/></g><g transform="translate(1077.086 1140.304) rotate(57)"><path d="M47.339,364.835,37.056,365.9,0,338l10.283-1.064Z" transform="translate(0 -264.091)" fill="#911116"/><path d="M10.283,72.849,0,73.913,21.115,1.064,31.4,0Z" fill="#800f13"/><path d="M68.677,0,84.616,100.744,47.56,72.849Z" transform="translate(-37.277)" fill="#cb181f"/></g><g transform="matrix(-0.559, -0.829, 0.829, -0.559, 991.682, 1208.622)"><path d="M54.343,368.962l-11.8,1.224L0,338.161l11.8-1.221Z" transform="translate(0 -253.313)" fill="#911116"/><path d="M11.8,83.627,0,84.848,24.239,1.221,36.046,0Z" fill="#800f13"/><path d="M71.8,0,90.1,115.65,47.56,83.627Z" transform="translate(-35.756)" fill="#cb181f"/></g></g></svg>