<svg xmlns="http://www.w3.org/2000/svg" width="142.202" height="173.012" viewBox="0 0 142.202 173.012"><g transform="translate(0 0)"><g transform="matrix(-0.974, 0.225, -0.225, -0.974, 128.193, 79.742)"><path d="M26.4,352.5l-5.734.594L0,337.533l5.734-.593Z" transform="translate(0 -296.316)" fill="#911116"/><path d="M5.734,40.624,0,41.217,11.775.593,17.51,0Z" fill="#800f13"/><path d="M59.336,0l8.888,56.18L47.56,40.624Z" transform="translate(-41.826)" fill="#cb181f"/></g><g transform="matrix(-0.966, 0.259, -0.259, -0.966, 95.925, 130.88)"><path d="M63,374.065l-13.685,1.419L0,338.356l13.685-1.416Z" transform="translate(0 -239.987)" fill="#911116"/><path d="M13.685,96.953,0,98.369,28.1,1.416,41.789,0Z" fill="#800f13"/><path d="M75.664,0,96.877,134.078,47.56,96.953Z" transform="translate(-33.875)" fill="#cb181f"/></g><g transform="matrix(-0.966, 0.259, -0.259, -0.966, 174.924, 128.88)"><g transform="matrix(-1, -0.017, 0.017, -1, 101.645, 118.756)"><path d="M63,374.065l-13.685,1.419L0,338.356l13.685-1.416Z" transform="translate(0 -239.987)" fill="#911116"/><path d="M13.685,96.953,0,98.369,28.1,1.416,41.789,0Z" fill="#800f13"/><path d="M75.664,0,96.877,134.078,47.56,96.953Z" transform="translate(-33.875)" fill="#cb181f"/></g></g></g></svg>