<svg xmlns="http://www.w3.org/2000/svg" width="35.035" height="46.658" viewBox="0 0 35.035 46.658"><g transform="translate(-600.422 -111.352)"><path d="M616.087,189.854a23.075,23.075,0,0,1-2.729-.81,8.254,8.254,0,0,1-4.091-3.808c-2.153-4.06-4.258-8.145-6.382-12.22q-1.136-2.179-2.267-4.36c-.316-.61-.263-.871.257-1.3a8.289,8.289,0,0,1,2.437-1.646,5.069,5.069,0,0,1,5.422,1.342c.407.442.781.914,1.258,1.474,0-.294,0-.468,0-.642q.008-8.5.014-16.994A4,4,0,0,1,612,147.144a3.711,3.711,0,0,1,5.451,2.662,6.381,6.381,0,0,1,.089,1.132c.007,2.87,0,5.74,0,8.695a3.713,3.713,0,0,1,3.1-.567,3.8,3.8,0,0,1,2.428,1.983,3.645,3.645,0,0,1,3.441-.986A3.843,3.843,0,0,1,629.2,162.5a3.779,3.779,0,0,1,6.209,2.568c.019.227.027.455.027.683.009,4.8.031,9.6.019,14.4a9.5,9.5,0,0,1-4.412,8.4,7.827,7.827,0,0,1-3.44,1.23,2.271,2.271,0,0,0-.305.079ZM602.21,168.317q1.386,2.663,2.758,5.3c1.878,3.6,3.713,7.232,5.65,10.8a6.923,6.923,0,0,0,6.274,3.859c3.234.055,6.469.026,9.7.005a6.652,6.652,0,0,0,4.208-1.5,7.785,7.785,0,0,0,3.041-6.2c.053-3.75.018-7.5.019-11.252,0-1.291.01-2.582-.007-3.872a2.285,2.285,0,0,0-1.648-2.211,2.255,2.255,0,0,0-2.8,2.246c-.023.652.006,1.306-.014,1.959a.737.737,0,0,1-.757.747.763.763,0,0,1-.791-.72,3.948,3.948,0,0,1-.007-.41c0-1.093.018-2.187-.009-3.28a2.273,2.273,0,0,0-1.975-2.261A2.181,2.181,0,0,0,623.6,163.3a3.832,3.832,0,0,0-.065.814c-.007,1.063,0,2.126,0,3.189a2.587,2.587,0,0,1-.019.409.775.775,0,0,1-1.543,0,3.076,3.076,0,0,1-.019-.454c0-1.473.018-2.946-.011-4.419a2.255,2.255,0,0,0-2.286-2.326,2.221,2.221,0,0,0-2.11,2.385c0,1.61,0,3.219,0,4.829,0,.121,0,.243,0,.364a.778.778,0,0,1-.8.805.758.758,0,0,1-.754-.8c-.007-.151,0-.3,0-.455q0-8.337,0-16.674a4.72,4.72,0,0,0-.075-.9,2.26,2.26,0,0,0-2.049-1.836,2.184,2.184,0,0,0-2.135,1.6,4.181,4.181,0,0,0-.138,1.167q-.022,9.772-.022,19.544c0,.432-.093.789-.543.942-.434.148-.719-.085-.975-.4-.749-.918-1.5-1.829-2.255-2.745a3.537,3.537,0,0,0-1.695-1.178A3.617,3.617,0,0,0,602.21,168.317Z" transform="translate(0 -31.844)" fill="rgba(255,255,255,0.8)"/><path d="M664.737,117.928a7,7,0,0,1,13.989.223c.006.6-.251.933-.732.956-.5.023-.8-.307-.828-.917a5.44,5.44,0,0,0-10.811-.686c-.041.238-.037.484-.057.725-.047.582-.347.9-.831.878s-.762-.382-.747-.951C664.724,118.079,664.732,118,664.737,117.928Z" transform="translate(-57.985)" fill="rgba(255,255,255,0.8)"/></g></svg>