<svg xmlns="http://www.w3.org/2000/svg" width="211.432" height="249.41" viewBox="0 0 211.432 249.41"><g transform="translate(-165.956 -249.838)"><g transform="translate(-89.653 13)"><path d="M447.356,326.005s-8.946-11.117-37.063-21.074c-.2-.072-.367-.131-.561-.2l-5.156,3.58h0c-12.538,8.962-50.794,30.412-93.313-3.927,0,0-21.328,4.694-33.4,15.71,0,0-13.135,3.461-21.2,81.17H463.353S460.69,343.408,447.356,326.005Z" transform="translate(1.319 84.745)" fill="#7a8789" opacity="0.3"/><path d="M394.885,408.081a2.37,2.37,0,0,1-2.34-2.011l-8.371-54.593a40.1,40.1,0,0,0-26.288-31.769l-45.071-15.96a2.369,2.369,0,1,1,1.581-4.466l45.071,15.958a44.831,44.831,0,0,1,29.393,35.521l8.371,54.593a2.37,2.37,0,0,1-1.984,2.7A2.456,2.456,0,0,1,394.885,408.081Z" transform="translate(69.784 78.166)" fill="#5d5d5d"/><path d="M257.982,408.081a2.455,2.455,0,0,1-.361-.027,2.37,2.37,0,0,1-1.984-2.7l8.371-54.593A44.825,44.825,0,0,1,293.4,315.242l45.071-15.96a2.369,2.369,0,1,1,1.58,4.466l-45.071,15.963a40.093,40.093,0,0,0-26.289,31.767l-8.371,54.593A2.37,2.37,0,0,1,257.982,408.081Z" transform="translate(0 78.166)" fill="#5d5d5d"/><path d="M332.685,342.638c-29.885,0-50.658-19.209-50.967-19.5l-2.809-2.66,28.755-10.184V290.81H312.4v22.834l-24.379,8.633c10.486,8.234,46.307,31.143,88.722-.052l-24.96-8.567V290.81h4.739v19.466l30.013,10.3-3.368,2.692C365,337.791,347.694,342.638,332.685,342.638Z" transform="translate(29.231 67.713)" fill="#5d5d5d"/><path d="M324.508,320.718h-.667A38.18,38.18,0,0,1,285.9,285.451l-.674-8.317a2.369,2.369,0,1,1,4.723-.383l.676,8.337a33.426,33.426,0,0,0,33.21,30.89h.667a33.424,33.424,0,0,0,33.21-30.87l.7-8.649a2.371,2.371,0,0,1,4.726.383l-.7,8.628A38.178,38.178,0,0,1,324.508,320.718Z" transform="translate(37.152 46.979)" fill="#5d5d5d"/><path d="M305.562,240.427s-24.616,3.993-23.015,38.414v3.988s9.025-6.838,18.542-4a85.663,85.663,0,0,0,2.683-12.281L321.6,277.213s43.536-.967,49.623,5.616c0,0,8.606-22.14-11.589-36.928C359.632,245.9,334.482,233.154,305.562,240.427Z" transform="translate(33.702 1.69)" fill="#c9c9c9"/><g transform="translate(313.877 236.838)"><path d="M375.951,286.978l-4.611-1.1c3.456-14.549,2.164-33.632-23.635-41.913-.135-.027-29.42-7.028-46.095,3.2l-.44.212c-.688.253-17.126,6.7-14.74,36.164l-4.726.383c-2.557-31.648,15.153-39.92,17.617-40.914,18.382-11.095,48.4-3.914,49.671-3.6C379.949,249.342,379.162,273.473,375.951,286.978Z" transform="translate(-281.453 -236.838)" fill="#5d5d5d"/><path d="M314.271,267.8a99.082,99.082,0,0,1-17.723-9.548,37.319,37.319,0,0,1-2.417,8.691l-4.372-1.822a34.43,34.43,0,0,0,2.5-11.505l.266-5.215,3.749,3.634c.05.045,5.6,5.271,19.867,11.413Z" transform="translate(-271.033 -222.335)" fill="#4d586c"/></g><g transform="translate(307.795 278.147)"><rect width="96.845" height="42.592" rx="7.545" transform="translate(4.368 3.37)" fill="#da0000"/><path d="M364.956,303.492H298.136a19.4,19.4,0,0,1-19.38-19.38v-9.569a19.4,19.4,0,0,1,19.38-19.383h66.819a19.406,19.406,0,0,1,19.383,19.383v9.569A19.4,19.4,0,0,1,364.956,303.492ZM298.136,259.9a14.66,14.66,0,0,0-14.644,14.643v9.569a14.658,14.658,0,0,0,14.644,14.641h66.819A14.659,14.659,0,0,0,379.6,284.111v-9.569A14.661,14.661,0,0,0,364.956,259.9Z" transform="translate(-278.756 -255.16)" fill="#5d5d5d"/></g><path d="M286.117,290.407H274.964V259.855h11.154a2.37,2.37,0,1,1,0,4.739H279.7V285.67h6.417a2.368,2.368,0,1,1,0,4.737Z" transform="translate(24.282 28.877)" fill="#4d586c"/><path d="M338.364,290.407H324.8a2.368,2.368,0,1,1,0-4.737h8.831V264.594h-6.446a2.37,2.37,0,1,1,0-4.739h11.183Z" transform="translate(83.827 28.877)" fill="#5d5d5d"/></g></g></svg>