<svg xmlns="http://www.w3.org/2000/svg" width="298.593" height="189.26" viewBox="0 0 298.593 189.26"><g transform="translate(-250.559 -63.337)"><g transform="translate(250.559 63.337)"><path d="M253,150.842a2.449,2.449,0,0,1-1.881-4.011c.541-.651,55.051-65.221,137.157-70.8,54.217-3.675,108.081,18.634,160.079,66.322a2.448,2.448,0,0,1-3.31,3.609C494.092,99.228,441.48,77.345,388.661,80.914c-79.993,5.409-133.245,68.408-133.772,69.045A2.442,2.442,0,0,1,253,150.842Z" transform="translate(-250.559 -50.123)" fill="#5d5d5d"/><path d="M398.512,178.014a190.673,190.673,0,0,1-57.643-9.077c-53.966-17.105-89.261-52.682-89.611-53.039a2.448,2.448,0,0,1,3.5-3.428c.342.35,34.915,35.156,87.774,51.859,70.706,22.342,138.838,3.445,202.5-56.166a2.447,2.447,0,1,1,3.345,3.573C494.185,162.476,442.036,178.014,398.512,178.014Z" transform="translate(-250.559 -15.913)" fill="#5d5d5d"/><g transform="translate(1.352)"><g transform="translate(81.015 28.047)"><circle cx="63.54" cy="63.54" r="63.54" transform="translate(2.448 2.448)" fill="#da0000"/><path d="M356.264,208.837a65.988,65.988,0,1,1,65.986-65.988A66.063,66.063,0,0,1,356.264,208.837Zm0-127.08a61.093,61.093,0,1,0,61.094,61.092A61.162,61.162,0,0,0,356.264,81.757Z" transform="translate(-290.276 -76.861)" fill="#5d5d5d"/></g><path d="M337.7,78.617s31.182,12.812,39.445,49.638c0,0,41.1-5.828,75.986,12.709C453.129,140.963,400.72,91.554,337.7,78.617Z" transform="translate(-158.336 -46.928)" fill="#7a8789" opacity="0.3"/><path d="M365.07,173.993s-30.857-13.578-38.209-50.6c0,0-41.234,4.815-75.65-14.577C251.211,108.82,302.385,159.507,365.07,173.993Z" transform="translate(-251.211 -14.495)" fill="#7a8789" opacity="0.3"/><path d="M300.377,137.076a2.446,2.446,0,0,1-2.445-2.447,50.165,50.165,0,0,1,50.111-50.113,2.447,2.447,0,0,1,0,4.894,45.269,45.269,0,0,0-45.218,45.218A2.446,2.446,0,0,1,300.377,137.076Z" transform="translate(-201.039 -40.594)" fill="#5d5d5d"/><path d="M282.327,104a2.447,2.447,0,0,1-2.445-2.447V63.337H318.57a2.448,2.448,0,0,1,0,4.9h-33.8v33.323A2.448,2.448,0,0,1,282.327,104Z" transform="translate(-220.422 -63.337)" fill="#ec4f3e"/><path d="M383.161,104a2.449,2.449,0,0,1-2.447-2.447V68.233h-33.8a2.448,2.448,0,0,1,0-4.9h38.69v38.219A2.449,2.449,0,0,1,383.161,104Z" transform="translate(-151.061 -63.337)" fill="#ec4f3e"/><path d="M318.3,175.654h-38.69V137.435a2.447,2.447,0,0,1,4.894,0v33.323h33.8a2.448,2.448,0,0,1,0,4.9Z" transform="translate(-220.716 13.606)" fill="#ec4f3e"/><path d="M385.334,175.654H346.648a2.448,2.448,0,0,1,0-4.9h33.793V137.435a2.446,2.446,0,1,1,4.892,0Z" transform="translate(-151.353 13.606)" fill="#ec4f3e"/><circle cx="12.708" cy="12.708" r="12.708" transform="translate(134.295 81.327)" fill="#5d5d5d"/></g></g></g></svg>